<?xml version="1.0" encoding="UTF-8"?>
<!DOCTYPE svg PUBLIC "-//W3C//DTD SVG 1.1//EN" "http://www.w3.org/Graphics/SVG/1.1/DTD/svg11.dtd">
<!-- Creator: CorelDRAW 2026 -->
<svg xmlns="http://www.w3.org/2000/svg" xml:space="preserve" width="117.263mm" height="117.263mm" version="1.1" style="shape-rendering:geometricPrecision; text-rendering:geometricPrecision; image-rendering:optimizeQuality; fill-rule:evenodd; clip-rule:evenodd"
viewBox="0 0 172.97 172.97"
 xmlns:xlink="http://www.w3.org/1999/xlink"
 xmlns:xodm="http://www.corel.com/coreldraw/odm/2003">
 <defs>
  <style type="text/css">
   <![CDATA[
    .fil3 {fill:#FEFEFE}
    .fil0 {fill:#2B2A29}
    .fil2 {fill:#EF7F1A}
    .fil1 {fill:#0085DC}
   ]]>
  </style>
 </defs>
 <g id="Warstwa_x0020_1">
  <metadata id="CorelCorpID_0Corel-Layer"/>
  <g id="_1959496469376">
   <rect class="fil0" x="0" width="172.97" height="172.97" rx="3.87" ry="4.24"/>
   <g>
    <path class="fil1" d="M78.7 65.24c-0.56,0 -1.13,-0 -1.73,-0.02l-0.61 -0.87c-2.27,-3.23 -7.12,-4 -10.51,-4.29 -3.02,-0.26 -6.33,-0.25 -9.36,0.09 -1.16,-1.58 -2.96,-2.54 -5.16,-2.41 -2.04,0.11 -3.68,1.12 -4.74,2.63l-0.12 -0.01c-2.32,-0.12 -4.67,-0.18 -7.02,-0.12 -2.39,-0.46 -1.88,-0.38 -1.02,-0.2 0.86,0.18 -10.16,-2.44 -15.33,-4.25 18,-4.41 23.01,-2.9 41.34,2.27 8.28,2.33 11.82,3.91 15.71,5.71 -0.57,0.43 -1.04,0.91 -1.45,1.46z"/>
    <path class="fil1" d="M20.3 79.25c3.67,0.07 9.16,0.77 20.32,2.69 0.03,1.39 0.27,2.87 0.69,4.45 0.03,0.11 0.06,0.21 0.09,0.32 -8.51,-2.9 -12.69,-5.06 -21.11,-7.46zm73.47 17.9c1.78,1.55 3.34,3.47 4.48,5.94 7.82,17.02 -9.86,29.12 -22.24,23.18 -8.44,-4.05 -12.69,-13.63 -16.82,-22.43 5.96,3.52 12.85,11.84 19.27,14.2 3.2,1.17 5.48,0.53 8.44,-0.93 3.96,-1.96 5.82,-8.6 2.87,-12.08 -3.86,-4.55 -10.72,-6.3 -15.91,-7.79 -5.87,-1.68 -11.79,-3.57 -17.72,-5.54 1.31,-0.41 2.5,-1.08 3.5,-2.17 0.46,-0.5 0.73,-0.97 1.06,-1.46 2.92,-0.48 13.13,0.45 16.79,1.53 0.05,0.35 0.09,0.7 0.14,1.01 0.24,1.41 0.57,2.91 1.26,4.13l0.5 0.87 0.82 0.46c1.89,1.07 8.51,1.43 13.57,1.08z"/>
    <path class="fil1" d="M124.68 58.71c-0.47,-1.05 -1.07,-1.97 -1.79,-2.71 -1.48,-1.52 -3.48,-2.34 -6,-2.15 -2.97,0.23 -5.18,2.75 -6.82,6.75 -1.79,0.38 -3.6,1 -5.05,2.06 -0.77,-11.26 8.96,-19.08 17.43,-17.21 6,1.32 10.91,6.95 12.8,14.83 -0.68,0.02 -1.35,0.05 -2.03,0.09l-0.12 0.01c-1.06,-1.51 -2.7,-2.52 -4.74,-2.63 -1.41,-0.08 -2.65,0.28 -3.66,0.97zm-0.14 33.24c-5.36,3.13 -12.94,4.24 -23.33,1.87 0.41,-1.01 0.64,-2.13 0.82,-3.21 0.05,-0.31 0.1,-0.66 0.14,-1.01 3.65,-1.08 13.87,-2.01 16.79,-1.53 0.34,0.49 0.61,0.96 1.06,1.46 1.12,1.22 2.47,1.92 3.96,2.3 0.17,0.05 0.36,0.09 0.55,0.13z"/>
    <path class="fil2" d="M99.51 98.06c1.95,2.13 6.23,8.69 19.52,10.2 13.29,1.51 14.92,1.34 14.92,1.34 0,0 -2.29,5.64 -3.77,12.91 5.38,1.61 27.24,-11.07 27.82,-12.29 0.58,-1.22 -9.78,-17.24 -19.57,-22.52 -0.99,6.19 -2.41,11.3 -2.41,11.3 -8.89,2.05 -28.7,1.38 -36.51,-0.93z"/>
    <path class="fil1" d="M14.94 67.49c0,0 3.62,-2.85 8.43,-2.54 -0.35,0.45 -0.64,0.95 -0.87,1.5l-1.1 2.62 1.38 1.4c-4.14,-0.99 -3.48,-0.75 -7.84,-2.97zm77.04 -5.91c-1.14,-4.5 -5.7,-6.78 -12.61,-7.97 2.42,-1.9 8.27,-4.46 13.08,-3.39 5.66,1.26 8.7,8.05 8.4,14.86 -0.53,-0.68 -1.18,-1.26 -1.98,-1.76 -1.95,-1.21 -4.52,-1.62 -6.89,-1.75z"/>
    <path class="fil3" d="M56 74.97c-1.48,-3.65 0.62,-7.11 -4.82,-6.93 -5.46,0.17 -1.95,4.48 -4.56,7.33 -2.56,2.79 -3.32,5.48 -2.13,9.89 0.46,1.72 1.65,2.53 3.05,2.91 1.75,0.47 5.57,0.41 7.41,-0.06 3.35,-0.86 2.8,-3.16 4.58,-3.66 3.39,-0.96 18.62,0.5 20.75,2.35 0.41,0.36 0.49,4.28 1.39,5.86 1.83,1.03 14.5,1.03 16.32,0 0.9,-1.58 0.98,-5.5 1.39,-5.86 2.12,-1.85 17.35,-3.31 20.75,-2.35 1.78,0.5 1.23,2.8 4.58,3.66 1.84,0.47 5.66,0.53 7.41,0.06 1.4,-0.38 2.59,-1.19 3.05,-2.91 1.19,-4.41 0.43,-7.09 -2.13,-9.89 -2.61,-2.84 0.9,-7.15 -4.56,-7.33 -5.44,-0.17 -3.34,3.28 -4.82,6.93 -1.66,0.45 -11.27,0.3 -17.38,-0.16 -12.37,-0.94 -0.72,-9.48 -16.46,-9.46 -15.74,-0.02 -4.08,8.52 -16.46,9.46 -6.11,0.46 -15.71,0.61 -17.38,0.16zm98.17 -6.86c-2.97,3 -19.6,4.87 -21.06,-1.1 -0.16,-0.65 -0.09,-1.5 0.24,-2.84 4.28,-0.23 18.88,-0.67 20.82,3.93zm-48.28 -1.36c2.49,-3.54 13.51,-3.22 17.36,-2.75 0.17,1 0.07,1.83 -0.19,2.59 -1.64,4.69 -5.39,3.72 -9.03,3.5 -3.35,-0.2 -6.69,-0.94 -8.14,-3.33zm19.31 -0.31c-1.65,-6.9 7.75,-6.15 5.56,0.06 -2.34,0.86 -3.25,0.69 -5.56,-0.06zm-99.71 1.67c2.97,3 19.6,4.87 21.06,-1.1 0.16,-0.65 0.09,-1.5 -0.24,-2.84 -4.28,-0.23 -18.88,-0.67 -20.82,3.93zm48.28 -1.36c-2.49,-3.54 -13.51,-3.22 -17.36,-2.75 -0.17,1 -0.07,1.83 0.19,2.59 1.64,4.69 5.39,3.72 9.03,3.5 3.35,-0.2 6.69,-0.94 8.14,-3.33zm-19.31 -0.31c1.65,-6.9 -7.75,-6.15 -5.56,0.06 2.34,0.86 3.25,0.69 5.56,-0.06z"/>
   </g>
  </g>
 </g>
</svg>
