<?xml version="1.0" encoding="UTF-8"?>
<!DOCTYPE svg PUBLIC "-//W3C//DTD SVG 1.1//EN" "http://www.w3.org/Graphics/SVG/1.1/DTD/svg11.dtd">
<!-- Creator: CorelDRAW 2026 -->
<svg xmlns="http://www.w3.org/2000/svg" xml:space="preserve" width="117.263mm" height="117.263mm" version="1.1" style="shape-rendering:geometricPrecision; text-rendering:geometricPrecision; image-rendering:optimizeQuality; fill-rule:evenodd; clip-rule:evenodd"
viewBox="0 0 161.84 161.84"
 xmlns:xlink="http://www.w3.org/1999/xlink"
 xmlns:xodm="http://www.corel.com/coreldraw/odm/2003">
 <defs>
  <style type="text/css">
   <![CDATA[
    .fil3 {fill:#FEFEFE}
    .fil2 {fill:#EF7F1A}
    .fil0 {fill:black}
    .fil1 {fill:#0085DC}
   ]]>
  </style>
 </defs>
 <g id="Warstwa_x0020_1">
  <metadata id="CorelCorpID_0Corel-Layer"/>
  <g id="_2353052559552">
   <rect class="fil0" x="0" width="161.84" height="161.84"/>
   <g>
    <path class="fil1" d="M73.63 61.04c-0.52,0 -1.06,-0 -1.62,-0.01l-0.57 -0.81c-2.12,-3.02 -6.66,-3.74 -9.83,-4.01 -2.82,-0.24 -5.92,-0.23 -8.76,0.08 -1.09,-1.48 -2.77,-2.37 -4.83,-2.26 -1.91,0.1 -3.44,1.04 -4.43,2.46l-0.11 -0.01c-2.17,-0.12 -4.37,-0.17 -6.57,-0.11 -2.23,-0.43 -1.76,-0.36 -0.96,-0.18 0.8,0.17 -9.5,-2.28 -14.34,-3.97 16.84,-4.12 21.53,-2.71 38.68,2.12 7.74,2.18 11.06,3.66 14.7,5.34 -0.53,0.4 -0.98,0.86 -1.35,1.37z"/>
    <path class="fil1" d="M19 74.14c3.44,0.07 8.57,0.72 19.01,2.52 0.03,1.3 0.25,2.68 0.65,4.16 0.03,0.1 0.06,0.2 0.09,0.3 -7.97,-2.71 -11.87,-4.73 -19.75,-6.98zm68.74 16.75c1.66,1.45 3.13,3.24 4.19,5.56 7.32,15.92 -9.22,27.25 -20.81,21.69 -7.9,-3.79 -11.87,-12.76 -15.73,-20.99 5.58,3.29 12.02,11.08 18.03,13.28 3,1.1 5.13,0.5 7.89,-0.87 3.7,-1.83 5.45,-8.04 2.68,-11.3 -3.61,-4.26 -10.03,-5.9 -14.89,-7.29 -5.5,-1.57 -11.03,-3.34 -16.58,-5.18 1.22,-0.38 2.34,-1.01 3.27,-2.03 0.43,-0.47 0.68,-0.91 0.99,-1.37 2.73,-0.44 12.29,0.42 15.7,1.43 0.04,0.33 0.09,0.65 0.13,0.95 0.22,1.32 0.53,2.72 1.18,3.86l0.46 0.82 0.76 0.43c1.76,1 7.96,1.34 12.7,1.01z"/>
    <path class="fil1" d="M116.65 54.93c-0.44,-0.98 -1,-1.84 -1.68,-2.54 -1.38,-1.42 -3.26,-2.19 -5.62,-2.01 -2.78,0.22 -4.85,2.58 -6.39,6.32 -1.68,0.36 -3.37,0.94 -4.72,1.92 -0.72,-10.54 8.39,-17.85 16.3,-16.1 5.62,1.24 10.21,6.51 11.97,13.87 -0.63,0.02 -1.27,0.05 -1.9,0.08l-0.11 0.01c-0.99,-1.42 -2.53,-2.36 -4.43,-2.46 -1.32,-0.07 -2.48,0.27 -3.43,0.9zm-0.13 31.1c-5.01,2.93 -12.11,3.97 -21.83,1.75 0.38,-0.95 0.6,-2 0.77,-3 0.05,-0.29 0.09,-0.62 0.13,-0.95 3.42,-1.01 12.98,-1.88 15.7,-1.43 0.32,0.46 0.57,0.9 0.99,1.37 1.04,1.14 2.31,1.8 3.71,2.16 0.16,0.04 0.34,0.08 0.52,0.12z"/>
    <path class="fil2" d="M93.1 91.74c1.83,1.99 5.83,8.13 18.26,9.55 12.43,1.41 13.96,1.25 13.96,1.25 0,0 -2.14,5.28 -3.53,12.08 5.03,1.51 25.49,-10.36 26.03,-11.5 0.54,-1.14 -9.15,-16.13 -18.31,-21.07 -0.93,5.79 -2.26,10.57 -2.26,10.57 -8.32,1.92 -26.85,1.29 -34.16,-0.87z"/>
    <path class="fil1" d="M13.98 63.15c0,0 3.39,-2.67 7.89,-2.38 -0.32,0.42 -0.6,0.89 -0.82,1.4l-1.03 2.45 1.3 1.31c-3.88,-0.93 -3.26,-0.71 -7.34,-2.78zm72.08 -5.53c-1.06,-4.21 -5.34,-6.35 -11.8,-7.45 2.27,-1.78 7.74,-4.17 12.24,-3.17 5.3,1.18 8.14,7.53 7.86,13.91 -0.5,-0.64 -1.1,-1.18 -1.85,-1.64 -1.83,-1.13 -4.23,-1.52 -6.45,-1.64z"/>
    <path class="fil3" d="M52.39 70.15c-1.39,-3.42 0.58,-6.65 -4.51,-6.49 -5.11,0.16 -1.83,4.19 -4.26,6.85 -2.4,2.61 -3.11,5.13 -2,9.25 0.43,1.61 1.54,2.37 2.85,2.72 1.64,0.44 5.22,0.39 6.93,-0.06 3.14,-0.81 2.62,-2.96 4.29,-3.43 3.18,-0.9 17.43,0.47 19.41,2.2 0.38,0.33 0.46,4 1.3,5.48 1.71,0.97 13.56,0.97 15.27,0 0.84,-1.48 0.92,-5.15 1.3,-5.48 1.98,-1.73 16.23,-3.1 19.41,-2.2 1.67,0.47 1.15,2.62 4.29,3.43 1.72,0.44 5.29,0.5 6.93,0.06 1.31,-0.35 2.42,-1.11 2.85,-2.72 1.11,-4.12 0.4,-6.64 -2,-9.25 -2.44,-2.66 0.84,-6.69 -4.26,-6.85 -5.09,-0.16 -3.12,3.07 -4.51,6.49 -1.55,0.42 -10.54,0.28 -16.26,-0.15 -11.58,-0.88 -0.67,-8.87 -15.4,-8.85 -14.73,-0.02 -3.82,7.97 -15.4,8.85 -5.71,0.43 -14.7,0.57 -16.26,0.15zm91.85 -6.42c-2.78,2.8 -18.33,4.56 -19.7,-1.02 -0.15,-0.61 -0.08,-1.41 0.22,-2.66 4,-0.21 17.67,-0.63 19.48,3.68zm-45.17 -1.27c2.33,-3.31 12.64,-3.01 16.24,-2.58 0.16,0.93 0.07,1.71 -0.18,2.42 -1.54,4.39 -5.05,3.48 -8.45,3.27 -3.13,-0.19 -6.26,-0.88 -7.61,-3.12zm18.07 -0.29c-1.54,-6.46 7.25,-5.75 5.2,0.06 -2.19,0.81 -3.04,0.64 -5.2,-0.06zm-93.29 1.56c2.78,2.8 18.34,4.56 19.7,-1.02 0.15,-0.61 0.08,-1.41 -0.22,-2.66 -4,-0.21 -17.67,-0.63 -19.48,3.68zm45.17 -1.27c-2.33,-3.31 -12.64,-3.01 -16.24,-2.58 -0.16,0.93 -0.07,1.71 0.18,2.42 1.54,4.39 5.05,3.48 8.45,3.27 3.13,-0.19 6.26,-0.88 7.61,-3.12zm-18.07 -0.29c1.54,-6.46 -7.25,-5.75 -5.2,0.06 2.19,0.81 3.04,0.64 5.2,-0.06z"/>
   </g>
  </g>
 </g>
</svg>
