<?xml version="1.0" encoding="UTF-8"?>
<!DOCTYPE svg PUBLIC "-//W3C//DTD SVG 1.1//EN" "http://www.w3.org/Graphics/SVG/1.1/DTD/svg11.dtd">
<!-- Creator: CorelDRAW 2026 -->
<svg xmlns="http://www.w3.org/2000/svg" xml:space="preserve" width="117.263mm" height="117.263mm" version="1.1" style="shape-rendering:geometricPrecision; text-rendering:geometricPrecision; image-rendering:optimizeQuality; fill-rule:evenodd; clip-rule:evenodd"
viewBox="0 0 176.43 176.43"
 xmlns:xlink="http://www.w3.org/1999/xlink"
 xmlns:xodm="http://www.corel.com/coreldraw/odm/2003">
 <defs>
  <style type="text/css">
   <![CDATA[
    .fil5 {fill:#FEFEFE}
    .fil4 {fill:#EF7F1A}
    .fil0 {fill:black}
    .fil3 {fill:#0085DC}
    .fil1 {fill:#FEFEFE;fill-rule:nonzero}
    .fil2 {fill:#EF7F1A;fill-rule:nonzero}
   ]]>
  </style>
 </defs>
 <g id="Warstwa_x0020_1">
  <metadata id="CorelCorpID_0Corel-Layer"/>
  <g id="_2353050411456">
   <rect class="fil0" x="0" width="176.43" height="176.43"/>
   <g>
    <g>
     <path class="fil1" d="M36.18 106.64l6.61 0c4.26,0 7.12,0.14 8.58,0.41 1.45,0.28 2.52,0.73 3.19,1.36 0.67,0.63 1.04,1.33 1.09,2.1 0.05,0.78 -0.12,2.29 -0.53,4.56l-1.51 8.37c-0.39,2.15 -0.79,3.58 -1.2,4.3 -0.42,0.73 -1.02,1.29 -1.8,1.7 -0.79,0.41 -1.72,0.69 -2.8,0.86 -1.07,0.16 -2.67,0.24 -4.78,0.24l-11.14 0 4.3 -23.9zm8.12 4.08l-2.83 15.74c1.25,0 2.06,-0.18 2.41,-0.54 0.36,-0.36 0.68,-1.34 0.97,-2.94l1.67 -9.3c0.19,-1.08 0.27,-1.78 0.23,-2.08 -0.04,-0.31 -0.22,-0.53 -0.55,-0.67 -0.32,-0.15 -0.95,-0.22 -1.9,-0.22zm15.63 -4.08l6.25 0c4.17,0 6.97,0.11 8.4,0.34 1.43,0.23 2.53,0.81 3.3,1.74 0.76,0.93 0.96,2.41 0.6,4.45 -0.33,1.86 -0.89,3.11 -1.66,3.75 -0.77,0.64 -2.13,1.02 -4.09,1.15 1.69,0.31 2.8,0.72 3.31,1.23 0.51,0.51 0.8,0.98 0.86,1.41 0.07,0.43 -0.07,1.61 -0.41,3.53l-1.14 6.31 -8.21 0 1.43 -7.95c0.23,-1.28 0.23,-2.07 -0,-2.38 -0.22,-0.31 -0.94,-0.46 -2.15,-0.46l-1.94 10.79 -8.85 0 4.3 -23.9zm8.12 4.08l-0.96 5.32c0.99,0 1.69,-0.1 2.12,-0.29 0.43,-0.19 0.74,-0.82 0.93,-1.87l0.24 -1.31c0.14,-0.76 0.03,-1.26 -0.3,-1.5 -0.34,-0.24 -1.02,-0.35 -2.03,-0.35zm32.65 9.93c-0.43,2.4 -0.82,4.1 -1.16,5.1 -0.34,1 -1,1.91 -2,2.74 -0.99,0.83 -2.25,1.46 -3.77,1.9 -1.52,0.44 -3.23,0.66 -5.15,0.66 -1.82,0 -3.41,-0.21 -4.78,-0.63 -1.37,-0.42 -2.43,-1.04 -3.15,-1.88 -0.73,-0.84 -1.09,-1.75 -1.08,-2.73 0.01,-0.99 0.24,-2.71 0.68,-5.17l0.74 -4.09c0.43,-2.4 0.82,-4.1 1.16,-5.1 0.34,-1 1,-1.91 2,-2.74 0.99,-0.83 2.25,-1.46 3.77,-1.9 1.52,-0.44 3.23,-0.66 5.15,-0.66 1.82,0 3.41,0.21 4.78,0.63 1.37,0.42 2.43,1.04 3.15,1.88 0.73,0.84 1.09,1.75 1.08,2.73 -0.01,0.99 -0.24,2.71 -0.68,5.17l-0.74 4.09zm-7.44 -7.85c0.2,-1.11 0.24,-1.82 0.13,-2.13 -0.12,-0.31 -0.44,-0.46 -0.97,-0.46 -0.45,0 -0.82,0.13 -1.11,0.38 -0.28,0.25 -0.54,0.99 -0.76,2.22l-2.01 11.15c-0.25,1.38 -0.32,2.24 -0.22,2.56 0.1,0.33 0.43,0.49 1.01,0.49 0.59,0 1,-0.19 1.23,-0.56 0.23,-0.37 0.47,-1.26 0.72,-2.67l1.98 -10.98zm33 -6.16l-4.3 23.9 -7.73 0 -2.64 -10.87 -1.96 10.87 -7.39 0 4.3 -23.9 7.39 0 3 10.76 1.94 -10.76 7.39 0zm3.54 0l14.74 0 -0.86 4.77 -5.89 0 -0.82 4.56 5.5 0 -0.82 4.53 -5.5 0 -0.95 5.26 6.49 0 -0.86 4.77 -15.34 0 4.3 -23.9z"/>
     <path class="fil2" d="M45.7 137.74l7.58 0c2.39,0 4.19,0.13 5.37,0.4 1.19,0.26 2.09,0.79 2.7,1.59 0.61,0.8 0.76,2.09 0.44,3.87 -0.22,1.2 -0.63,2.04 -1.25,2.51 -0.62,0.48 -1.75,0.84 -3.37,1.09 1.71,0.28 2.83,0.75 3.34,1.39 0.51,0.65 0.65,1.64 0.41,2.99l-0.34 1.91c-0.25,1.39 -0.66,2.42 -1.24,3.09 -0.57,0.67 -1.37,1.13 -2.4,1.38 -1.03,0.25 -3.08,0.37 -6.14,0.37l-8.79 0 3.71 -20.6zm6.99 3.51l-0.82 4.58c0.32,-0.01 0.57,-0.01 0.75,-0.01 0.73,0 1.22,-0.13 1.46,-0.39 0.25,-0.26 0.48,-1 0.7,-2.22 0.12,-0.65 0.12,-1.1 -0,-1.36 -0.12,-0.26 -0.31,-0.42 -0.56,-0.49 -0.25,-0.07 -0.77,-0.1 -1.53,-0.11zm-1.4 7.79l-1.04 5.78c1.05,-0.03 1.75,-0.14 2.08,-0.36 0.33,-0.21 0.56,-0.74 0.71,-1.57l0.35 -1.93c0.16,-0.89 0.13,-1.42 -0.1,-1.61 -0.23,-0.19 -0.89,-0.29 -2,-0.32zm22.48 -11.3l-2.97 16.48 4.59 0 -0.74 4.11 -12.22 0 3.71 -20.6 7.63 0zm20.52 0l0.65 20.6 -7.78 0 0.26 -3.7 -2.75 0 -1.08 3.7 -7.88 0 7.57 -20.6 11.02 0zm-6.43 13.25c0.06,-2.33 0.19,-5.22 0.41,-8.67 -1.47,3.96 -2.46,6.85 -2.99,8.67l2.59 0zm27.07 -7l-7.07 0 0.27 -1.52c0.13,-0.71 0.12,-1.17 -0.03,-1.36 -0.14,-0.2 -0.42,-0.29 -0.84,-0.29 -0.46,0 -0.83,0.13 -1.11,0.39 -0.28,0.26 -0.47,0.66 -0.57,1.19 -0.12,0.69 -0.08,1.2 0.12,1.55 0.2,0.34 0.84,0.76 1.93,1.26 3.12,1.42 5.04,2.59 5.75,3.49 0.72,0.91 0.89,2.37 0.53,4.38 -0.26,1.47 -0.71,2.55 -1.32,3.25 -0.61,0.69 -1.66,1.28 -3.14,1.74 -1.48,0.47 -3.14,0.71 -5,0.71 -2.04,0 -3.72,-0.27 -5.07,-0.82 -1.34,-0.54 -2.15,-1.23 -2.45,-2.07 -0.29,-0.84 -0.3,-2.04 -0.02,-3.58l0.24 -1.35 7.07 0 -0.45 2.5c-0.14,0.77 -0.13,1.27 0.03,1.49 0.16,0.22 0.49,0.33 1,0.33 0.51,0 0.91,-0.14 1.21,-0.42 0.3,-0.28 0.5,-0.69 0.59,-1.24 0.22,-1.21 0.13,-2 -0.28,-2.37 -0.42,-0.37 -1.49,-1 -3.22,-1.87 -1.73,-0.88 -2.86,-1.52 -3.41,-1.92 -0.54,-0.4 -0.95,-0.95 -1.23,-1.65 -0.27,-0.7 -0.32,-1.6 -0.12,-2.69 0.28,-1.58 0.78,-2.73 1.48,-3.46 0.71,-0.73 1.73,-1.3 3.08,-1.71 1.35,-0.41 2.93,-0.62 4.73,-0.62 1.97,0 3.61,0.23 4.93,0.67 1.31,0.45 2.13,1.02 2.45,1.7 0.33,0.68 0.35,1.84 0.05,3.48l-0.15 0.82zm19.5 -6.25l-0.74 4.11 -4.48 0 -2.97 16.48 -7.63 0 2.97 -16.48 -4.52 0 0.74 -4.11 16.62 0z"/>
    </g>
    <path class="fil3" d="M80.84 36.64c-0.53,0 -1.07,-0 -1.64,-0.01l-0.58 -0.82c-2.15,-3.05 -6.74,-3.78 -9.94,-4.06 -2.86,-0.24 -5.99,-0.23 -8.86,0.08 -1.1,-1.5 -2.8,-2.4 -4.89,-2.28 -1.93,0.11 -3.48,1.06 -4.48,2.49l-0.12 -0.01c-2.19,-0.12 -4.42,-0.17 -6.65,-0.11 -2.26,-0.43 -1.78,-0.36 -0.97,-0.19 0.81,0.17 -9.61,-2.31 -14.5,-4.02 17.03,-4.17 21.77,-2.74 39.12,2.15 7.83,2.21 11.18,3.7 14.87,5.4 -0.54,0.41 -0.99,0.87 -1.37,1.38z"/>
    <path class="fil3" d="M25.58 49.9c3.48,0.07 8.67,0.73 19.23,2.55 0.03,1.32 0.25,2.72 0.66,4.21 0.03,0.1 0.06,0.2 0.09,0.3 -8.06,-2.74 -12.01,-4.78 -19.98,-7.06zm69.53 16.94c1.68,1.46 3.16,3.28 4.24,5.62 7.4,16.11 -9.33,27.56 -21.05,21.94 -7.99,-3.83 -12.01,-12.9 -15.91,-21.23 5.64,3.33 12.16,11.21 18.24,13.44 3.03,1.11 5.19,0.5 7.99,-0.88 3.75,-1.85 5.51,-8.13 2.71,-11.43 -3.65,-4.31 -10.14,-5.97 -15.06,-7.37 -5.56,-1.59 -11.16,-3.38 -16.77,-5.24 1.24,-0.38 2.36,-1.02 3.31,-2.06 0.43,-0.47 0.69,-0.92 1.01,-1.38 2.76,-0.45 12.43,0.42 15.89,1.45 0.04,0.33 0.09,0.66 0.14,0.96 0.22,1.34 0.54,2.75 1.19,3.9l0.47 0.83 0.77 0.44c1.78,1.01 8.05,1.35 12.85,1.02z"/>
    <path class="fil3" d="M124.36 30.46c-0.44,-0.99 -1.01,-1.86 -1.7,-2.57 -1.4,-1.44 -3.29,-2.22 -5.68,-2.03 -2.81,0.22 -4.91,2.61 -6.46,6.39 -1.69,0.36 -3.41,0.95 -4.78,1.95 -0.73,-10.66 8.48,-18.05 16.49,-16.28 5.68,1.25 10.33,6.58 12.11,14.03 -0.64,0.02 -1.28,0.05 -1.92,0.08l-0.12 0.01c-1,-1.43 -2.56,-2.38 -4.48,-2.49 -1.33,-0.07 -2.51,0.27 -3.47,0.92zm-0.13 31.46c-5.07,2.97 -12.25,4.02 -22.08,1.77 0.38,-0.96 0.61,-2.02 0.78,-3.04 0.05,-0.3 0.09,-0.63 0.14,-0.96 3.46,-1.03 13.13,-1.9 15.89,-1.45 0.32,0.46 0.58,0.91 1.01,1.38 1.06,1.16 2.34,1.82 3.75,2.18 0.16,0.04 0.34,0.08 0.52,0.12z"/>
    <path class="fil4" d="M100.54 67.7c1.85,2.02 5.9,8.23 18.47,9.66 12.57,1.43 14.12,1.26 14.12,1.26 0,0 -2.17,5.34 -3.57,12.21 5.09,1.53 25.78,-10.48 26.33,-11.63 0.55,-1.15 -9.25,-16.31 -18.52,-21.31 -0.94,5.86 -2.28,10.69 -2.28,10.69 -8.42,1.94 -27.16,1.31 -34.55,-0.88z"/>
    <path class="fil3" d="M20.51 38.78c0,0 3.43,-2.7 7.98,-2.4 -0.33,0.43 -0.61,0.9 -0.82,1.42l-1.04 2.47 1.31 1.32c-3.92,-0.94 -3.29,-0.71 -7.42,-2.81zm72.91 -5.59c-1.08,-4.26 -5.4,-6.42 -11.93,-7.54 2.29,-1.8 7.83,-4.22 12.38,-3.21 5.36,1.19 8.24,7.62 7.95,14.07 -0.5,-0.64 -1.12,-1.19 -1.88,-1.66 -1.85,-1.14 -4.28,-1.53 -6.52,-1.66z"/>
    <path class="fil5" d="M59.36 45.85c-1.4,-3.46 0.59,-6.72 -4.56,-6.56 -5.17,0.16 -1.85,4.24 -4.31,6.93 -2.42,2.64 -3.15,5.19 -2.02,9.36 0.44,1.63 1.56,2.4 2.89,2.75 1.66,0.44 5.28,0.39 7.01,-0.06 3.17,-0.82 2.65,-2.99 4.34,-3.47 3.21,-0.91 17.63,0.48 19.63,2.23 0.39,0.34 0.47,4.05 1.31,5.54 1.73,0.98 13.72,0.98 15.45,0 0.85,-1.5 0.93,-5.21 1.31,-5.54 2.01,-1.75 16.42,-3.14 19.63,-2.23 1.68,0.48 1.16,2.65 4.34,3.47 1.74,0.45 5.35,0.5 7.01,0.06 1.33,-0.36 2.45,-1.13 2.89,-2.75 1.13,-4.17 0.4,-6.71 -2.02,-9.36 -2.47,-2.69 0.85,-6.77 -4.31,-6.93 -5.15,-0.16 -3.16,3.1 -4.56,6.56 -1.57,0.42 -10.66,0.28 -16.44,-0.15 -11.71,-0.89 -0.68,-8.97 -15.57,-8.95 -14.89,-0.02 -3.86,8.06 -15.57,8.95 -5.78,0.44 -14.87,0.58 -16.44,0.15zm92.91 -6.49c-2.81,2.84 -18.55,4.61 -19.93,-1.04 -0.15,-0.62 -0.08,-1.42 0.23,-2.69 4.05,-0.22 17.87,-0.64 19.7,3.72zm-45.69 -1.28c2.35,-3.35 12.79,-3.04 16.43,-2.6 0.16,0.94 0.07,1.73 -0.18,2.45 -1.56,4.44 -5.1,3.52 -8.55,3.31 -3.17,-0.19 -6.33,-0.89 -7.7,-3.15zm18.27 -0.3c-1.56,-6.53 7.34,-5.82 5.26,0.06 -2.22,0.82 -3.08,0.65 -5.26,-0.06zm-94.36 1.58c2.81,2.84 18.55,4.61 19.93,-1.04 0.15,-0.62 0.08,-1.42 -0.23,-2.69 -4.05,-0.22 -17.87,-0.64 -19.7,3.72zm45.69 -1.28c-2.35,-3.35 -12.79,-3.04 -16.43,-2.6 -0.16,0.94 -0.07,1.73 0.18,2.45 1.56,4.44 5.1,3.52 8.55,3.31 3.17,-0.19 6.33,-0.89 7.7,-3.15zm-18.27 -0.3c1.56,-6.53 -7.34,-5.82 -5.26,0.06 2.22,0.82 3.08,0.65 5.26,-0.06z"/>
   </g>
  </g>
 </g>
</svg>
